<svg id="Layer_1" data-name="Layer 1" xmlns="http://www.w3.org/2000/svg" viewBox="0 0 254.51 134.22"><defs><style>.cls-1{fill:#cc2427;}.cls-2{fill:#fff;}</style></defs><path id="Icon" class="cls-1" d="M195.48,74.11l0,0C184.61,81.8,171.77,89.86,158,98.32l-.55.32a.41.41,0,1,0,.48.67l.46-.24c11.71-6.12,25.16-13.37,38.7-20.82l.22-.12A16.62,16.62,0,0,1,195.48,74.11Zm71.13-57.59c-17.08-18.84-127-1.89-173.75,8.32l-1.09.24a.42.42,0,0,0-.34.47.42.42,0,0,0,.48.34L93,25.68c38.73-6.89,119.27-16.46,136.6.73,5.29,5.24,4,12-2.1,20A15.87,15.87,0,0,1,234.21,56C258.14,40.09,274.22,24.92,266.61,16.52Z" transform="translate(-22.74 -8.03)"/><g id="Wordmark"><path class="cls-2" d="M202.39,69.16c.22,6.63,4.41,12.06,9.89,12.06,10.6,0,15.11-13,14.8-21.72-.23-6.65-4.53-12.06-10-12.06C208,47.44,202.08,60.4,202.39,69.16Zm-5.6-.36c-.39-11.31,8.47-22.88,21.35-22.88,8.61,0,14.24,5.74,14.56,14.53.41,11.93-7.87,22.88-21.35,22.88C202.74,83.33,197.1,77.61,196.79,68.8Z" transform="translate(-22.74 -8.03)"/><path class="cls-2" d="M74.82,65.81a11.24,11.24,0,0,1-1.79.5c-.74.17-2.08.41-4,.72a7,7,0,0,0-2.81.87,2.08,2.08,0,0,0-.89,1.37,1.34,1.34,0,0,0,.59,1.42,4.8,4.8,0,0,0,2.6.54,9,9,0,0,0,2.67-.42,6.58,6.58,0,0,0,2.19-1.16,3.51,3.51,0,0,0,.93-1.37A18.19,18.19,0,0,0,74.82,65.81Zm11.19-7a27.86,27.86,0,0,1-.5,3.54L83.61,73a2,2,0,0,0,1.07,2.19l-.06.42-10.84,0-.1-2.7a21.66,21.66,0,0,1-5.21,2.23,19.05,19.05,0,0,1-5.2.63c-3.5,0-5.51-.36-6.89-1.57s-2.09-2.09-2-3.81a5.86,5.86,0,0,1,1.31-3.15,7.89,7.89,0,0,1,2.89-2A15.32,15.32,0,0,1,62.91,64c1.91-.31,4.58-.62,8.16-.92a11.78,11.78,0,0,0,3.57-.81c.74-.29,1-.61,1.15-1.22.2-1.09-.15-1.71-1.6-2-3.91-.77-11.23.5-15,1.44L61.24,55a98.43,98.43,0,0,1,14.55-1.19C83.59,53.77,86.09,56,86,58.85Z" transform="translate(-22.74 -8.03)"/><path class="cls-2" d="M117.44,75.63l3.76-21.24h10.38l-3.76,21.24Zm4.34-26.16c.31-1.74,3.06-3.16,6.14-3.16s5.34,1.42,5,3.16-3.08,3.16-6.16,3.16S121.47,51.22,121.78,49.47Z" transform="translate(-22.74 -8.03)"/><path class="cls-2" d="M168.46,65.87c-.47.15-1.07.33-1.81.49s-2.07.39-4,.71a7,7,0,0,0-2.79.88,2.13,2.13,0,0,0-.9,1.36,1.35,1.35,0,0,0,.59,1.42,4.76,4.76,0,0,0,2.61.53,8.64,8.64,0,0,0,2.66-.41,6.45,6.45,0,0,0,2.2-1.16,3.64,3.64,0,0,0,.92-1.38A18.42,18.42,0,0,0,168.46,65.87Zm11.19-7a26,26,0,0,1-.52,3.54l-1.88,10.64a2,2,0,0,0,1.06,2.2l-.07.37-10.83,0L167.32,73a21,21,0,0,1-5.21,2.22,18.44,18.44,0,0,1-5.22.64c-3.49,0-5.49-.35-6.87-1.57s-2.1-2.08-2-3.8a5.61,5.61,0,0,1,1.3-3.15,7.81,7.81,0,0,1,2.9-2A16.1,16.1,0,0,1,156.53,64c1.93-.29,4.61-.62,8.18-.92a12.22,12.22,0,0,0,3.54-.78c.76-.29,1.06-.62,1.17-1.23.19-1.08-.15-1.71-1.59-2-3.93-.77-11.23.5-15,1.44l2-5.53a98.68,98.68,0,0,1,14.55-1.2C177.22,53.8,179.71,56,179.65,58.89Z" transform="translate(-22.74 -8.03)"/><path class="cls-2" d="M52.94,68a37.42,37.42,0,0,1-8.62.93c-5,0-8.9-2.46-8.69-7,.15-3,3.72-9.35,12.77-9.35a14.78,14.78,0,0,1,8.07,2.21l1.31-7.38A24.9,24.9,0,0,0,47.51,45.7c-11.85.13-23.25,5.52-24.66,16.48C21.41,73.33,35,76.13,41.06,76.1c3.49,0,7.12-.15,10.5-.5Z" transform="translate(-22.74 -8.03)"/><path class="cls-2" d="M137.31,54.27l.74-4.33,10.86-2.36-1.15,6.69h5.31l-1,4.28-5.16,0-3.13,17.08s-10.45-.07-10.49,0l3.12-17h-4l.8-4.31Z" transform="translate(-22.74 -8.03)"/><polygon class="cls-2" points="167.44 67.58 156.87 67.6 162.19 37.97 172.49 38.26 167.44 67.58"/><path class="cls-2" d="M103.71,59.37A6,6,0,0,0,100,60.6a5.6,5.6,0,0,0-2,3.64c-.33,1.86-.14,3.18.6,4a4.13,4.13,0,0,0,3.21,1.22,6.16,6.16,0,0,0,2.64-.52,5.18,5.18,0,0,0,2-1.75,7,7,0,0,0,1.14-2.8,4.18,4.18,0,0,0-.73-3.76A4,4,0,0,0,103.71,59.37ZM84.81,83l5-28.46H99l-.71,3.63a8.62,8.62,0,0,1,3.8-2.7A15.53,15.53,0,0,1,108,54.17a10.86,10.86,0,0,1,5.63,1.06,7.44,7.44,0,0,1,3.67,4,10.48,10.48,0,0,1,.46,5.78,12.62,12.62,0,0,1-5.13,8.31c-2.79,2-5.29,2.56-8.87,2.57a13.82,13.82,0,0,1-3.2-.34,7.67,7.67,0,0,1-2.07-.83,9.57,9.57,0,0,1-1.71-1.55L95,83Z" transform="translate(-22.74 -8.03)"/><path class="cls-2" d="M273.28,62c-.06-1.72-.91-2.87-2.68-2.87-4.26,0-8.79,8.34-9.57,11.71C268,70.82,273.45,66.66,273.28,62Zm.92,13.07.82.56c-2.08,4.23-6.31,7.63-11.28,7.63-4.06,0-7.39-2.7-7.57-7.78-.33-9.11,8.2-17.56,15.18-17.56,3,0,5.78,1.31,5.9,4.53.26,7.24-9.91,9.45-16.6,9.6a8.09,8.09,0,0,0-.26,2.68c.11,3,1.93,5.52,5.68,5.52C269.31,80.23,272.56,77.62,274.2,75.05Z" transform="translate(-22.74 -8.03)"/><path class="cls-2" d="M232.55,61.74c.72-.1,1.88-.23,2.38-.23.76,0,1.48.15,1.52.9,0,.45-.8,3.68-1,4.43L233.86,74c-.65,2.92-1.36,6-2,8.39H236l2.34-11.31c7.13-7.43,9.88-9.85,11.56-9.85a1.21,1.21,0,0,1,1.32,1.3,22.53,22.53,0,0,1-1.05,5.13l-2.39,8.25a17.16,17.16,0,0,0-.9,4.72,2.49,2.49,0,0,0,2.79,2.62c3,0,5.25-3.17,7.18-6.28l-.57-1c-.78,1.25-2.58,4-4,4-.45,0-.87-.3-.88-1a12.09,12.09,0,0,1,.64-3.37l2.65-9.66a23.73,23.73,0,0,0,1-5.29A2.48,2.48,0,0,0,253,57.89c-2.73,0-6.37,2-14.07,10.86h-.11l1-4.32c.53-2.37,1-4.83,1.54-6.54a68.52,68.52,0,0,1-8.83,2.49Z" transform="translate(-22.74 -8.03)"/></g><path class="cls-2" d="M70.65,141.6,76.4,112a28.38,28.38,0,0,1,3.78-.67,37.41,37.41,0,0,1,4.25-.27q4.57,0,7,1.83a6.25,6.25,0,0,1,2.42,5.29A7.29,7.29,0,0,1,92.2,123a9.11,9.11,0,0,1-4.66,2.85,7.85,7.85,0,0,1,2.87,1.34,6,6,0,0,1,1.79,2.18,6.56,6.56,0,0,1,.61,2.83,8.43,8.43,0,0,1-3,6.95q-3,2.46-8.53,2.46Zm10.58-3.15a8.24,8.24,0,0,0,5.46-1.66,5.7,5.7,0,0,0,2-4.6,4.18,4.18,0,0,0-1.41-3.39,5.93,5.93,0,0,0-4-1.19h-6l-2.11,10.84Zm3-24.31a18.87,18.87,0,0,0-4.37.43l-2,10h5a7.35,7.35,0,0,0,5-1.62,5.37,5.37,0,0,0,1.88-4.3Q89.82,114.14,84.26,114.14Z" transform="translate(-22.74 -8.03)"/><path class="cls-2" d="M103.94,119.67l-2.81,14.42a11.59,11.59,0,0,0-.17,1.77,3.07,3.07,0,0,0,1,2.42,4,4,0,0,0,2.74.86,9.81,9.81,0,0,0,2.67-.41,11.05,11.05,0,0,0,2.6-1.1l3.49-18h3.93l-4.23,21.68-3.24.34v-1.47a13.56,13.56,0,0,1-6.69,2,6.55,6.55,0,0,1-4.58-1.53A5.47,5.47,0,0,1,97,136.46a10.2,10.2,0,0,1,.21-2.11L100,119.67Z" transform="translate(-22.74 -8.03)"/><path class="cls-2" d="M118.71,137.24a15.34,15.34,0,0,0,3.32,1.43,12.39,12.39,0,0,0,3.42.51,6.21,6.21,0,0,0,3.8-1,3.37,3.37,0,0,0,1.38-2.85,2.92,2.92,0,0,0-.56-1.84,4.72,4.72,0,0,0-1.86-1.27l-2.94-1.25a8.41,8.41,0,0,1-3.19-2.16,4.51,4.51,0,0,1-1-2.94,6,6,0,0,1,2.33-4.9,9.06,9.06,0,0,1,6-1.92,13.83,13.83,0,0,1,3.47.45,13,13,0,0,1,3.22,1.32l-.56,2.94a12.79,12.79,0,0,0-5.87-1.65,5.71,5.71,0,0,0-3.39.89,2.81,2.81,0,0,0-1.23,2.44,2.11,2.11,0,0,0,.53,1.49,6,6,0,0,0,1.92,1.19l2.94,1.25a7.45,7.45,0,0,1,3.14,2.27,5.45,5.45,0,0,1,1,3.34,6.53,6.53,0,0,1-2.44,5.29,9.76,9.76,0,0,1-6.41,2,16.07,16.07,0,0,1-3.83-.45,12.26,12.26,0,0,1-3.17-1.23Z" transform="translate(-22.74 -8.03)"/><path class="cls-2" d="M137.88,141.6l4.19-21.55,4-.47-4.28,22Zm7.26-26.42a2.54,2.54,0,0,1-1.71-.54,1.86,1.86,0,0,1-.62-1.49,2.75,2.75,0,0,1,3-3,2.54,2.54,0,0,1,1.71.54,1.84,1.84,0,0,1,.63,1.48,2.76,2.76,0,0,1-3,3Z" transform="translate(-22.74 -8.03)"/><path class="cls-2" d="M161.29,141.6l2.81-14.42a11.59,11.59,0,0,0,.17-1.77,3,3,0,0,0-1-2.44,4.4,4.4,0,0,0-2.9-.84,9.94,9.94,0,0,0-2.68.41,11.16,11.16,0,0,0-2.59,1.1l-3.49,18h-3.93l4.23-21.67,3.24-.35v1.47a13.56,13.56,0,0,1,6.69-2,6.8,6.8,0,0,1,4.75,1.53,5.45,5.45,0,0,1,1.68,4.26,10.13,10.13,0,0,1-.21,2.11l-2.85,14.68Z" transform="translate(-22.74 -8.03)"/><path class="cls-2" d="M187.28,140.78a13.09,13.09,0,0,1-3.15,1.08,16,16,0,0,1-3.45.39q-4.32,0-6.63-2.31t-2.31-6.63a17.21,17.21,0,0,1,1.55-7.47,12.51,12.51,0,0,1,4.13-5A9.77,9.77,0,0,1,183.1,119a7.71,7.71,0,0,1,5.54,1.9,6.86,6.86,0,0,1,2,5.23,19.58,19.58,0,0,1-.86,5.31h-14l-.09,1c0,.36,0,.71,0,1.06,0,3.72,1.89,5.57,5.69,5.57a17.14,17.14,0,0,0,3.48-.36,14.78,14.78,0,0,0,3.09-1Zm-4.4-18.87a5.42,5.42,0,0,0-4,1.77,11,11,0,0,0-2.52,5h10.4a11.7,11.7,0,0,0,.26-2.46,4.46,4.46,0,0,0-1-3.2A4,4,0,0,0,182.88,121.91Z" transform="translate(-22.74 -8.03)"/><path class="cls-2" d="M192.51,137.24a15.13,15.13,0,0,0,3.32,1.43,12.32,12.32,0,0,0,3.41.51,6.21,6.21,0,0,0,3.8-1,3.34,3.34,0,0,0,1.38-2.85,2.92,2.92,0,0,0-.55-1.84,4.79,4.79,0,0,0-1.86-1.27l-2.94-1.25a8.37,8.37,0,0,1-3.2-2.16,4.51,4.51,0,0,1-1-2.94,6.08,6.08,0,0,1,2.33-4.9,9.09,9.09,0,0,1,6-1.92,14,14,0,0,1,3.48.45,13,13,0,0,1,3.22,1.32l-.56,2.94a12.8,12.8,0,0,0-5.88-1.65A5.71,5.71,0,0,0,200,123a2.84,2.84,0,0,0-1.23,2.44,2.12,2.12,0,0,0,.54,1.49,6,6,0,0,0,1.92,1.19l2.94,1.25a7.42,7.42,0,0,1,3.13,2.27,5.39,5.39,0,0,1,1,3.34,6.52,6.52,0,0,1-2.43,5.29,9.79,9.79,0,0,1-6.42,2,16,16,0,0,1-3.82-.45,12.26,12.26,0,0,1-3.17-1.23Z" transform="translate(-22.74 -8.03)"/><path class="cls-2" d="M211.51,137.24a15.13,15.13,0,0,0,3.32,1.43,12.32,12.32,0,0,0,3.41.51,6.21,6.21,0,0,0,3.8-1,3.34,3.34,0,0,0,1.38-2.85,2.86,2.86,0,0,0-.56-1.84,4.67,4.67,0,0,0-1.85-1.27l-2.94-1.25a8.37,8.37,0,0,1-3.2-2.16,4.51,4.51,0,0,1-1-2.94,6.08,6.08,0,0,1,2.33-4.9,9.09,9.09,0,0,1,6-1.92,14,14,0,0,1,3.48.45,13.13,13.13,0,0,1,3.22,1.32l-.56,2.94a12.83,12.83,0,0,0-5.88-1.65A5.71,5.71,0,0,0,219,123a2.84,2.84,0,0,0-1.23,2.44,2.12,2.12,0,0,0,.54,1.49,6,6,0,0,0,1.92,1.19l2.94,1.25a7.42,7.42,0,0,1,3.13,2.27,5.39,5.39,0,0,1,1,3.34,6.52,6.52,0,0,1-2.43,5.29,9.79,9.79,0,0,1-6.42,2,16,16,0,0,1-3.82-.45,12.26,12.26,0,0,1-3.17-1.23Z" transform="translate(-22.74 -8.03)"/></svg>